<svg width="1200" height="1600" xmlns="http://www.w3.org/2000/svg">

 <g>
  <title>background</title>
  <rect fill="none" id="canvas_background" height="1602" width="1202" y="-1" x="-1"/>
 </g>
 <g>
  <title>Layer 1</title>
  <path stroke="null" stroke-width="0" id="svg_1" fill="#d82424" d="m1138.272753,8.576366l-1090.655324,0c-24.622474,0 -44.795398,27.291004 -44.795398,60.529742l0,1462.451697c0,33.238901 20.172924,60.529742 44.795398,60.529742l1098.327134,0c24.622264,0 44.795398,-27.290841 44.795398,-60.529742l0,-1462.451697c0,-33.238738 -27.844944,-60.529742 -52.467208,-60.529742zm-74.013706,1198.290197l-948.044873,0l0,-1037.968174l948.044873,2.89837l0,1035.069804z"/>
  <circle stroke="null" stroke-width="0" id="svg_2" r="177.729095" fill="#d82424" cy="515.468867" cx="402.568605"/>
  <path stroke="null" stroke-width="0" id="svg_3" fill="#ea1515" d="m794.375253,560.751708c-24.836116,-46.673768 -67.326262,-47.791994 -94.386508,-2.430925l-133.030762,223.013098c-27.060246,45.361068 -80.949057,59.752147 -119.778656,31.990978c-38.875935,-27.761168 -97.583694,-17.113715 -130.574952,23.628595l-132.521066,163.892992c-32.991258,40.839547 -18.256399,74.143225 32.713242,74.143225l758.891615,0c50.969641,0 72.330554,-38.165529 47.448102,-84.887916l-228.761015,-429.350047z"/>
 </g>
</svg>